<svg height="512pt" viewBox="0 0 512.00005 512" width="512pt" xmlns="http://www.w3.org/2000/svg"><path d="m347 512h-332c-8.285156 0-15-6.714844-15-15v-434c0-8.285156 6.714844-15 15-15h332c8.285156 0 15 6.714844 15 15v434c0 8.285156-6.714844 15-15 15zm0 0" fill="#00d7df"/><path d="m347 512h-166v-464h166c8.285156 0 15 6.714844 15 15v434c0 8.285156-6.714844 15-15 15zm0 0" fill="#00c7ce"/><g fill="#3f4a4a"><path d="m155 392h-80c-8.285156 0-15-6.714844-15-15s6.714844-15 15-15h80c8.285156 0 15 6.714844 15 15s-6.714844 15-15 15zm0 0"/><path d="m155 332h-80c-8.285156 0-15-6.714844-15-15s6.714844-15 15-15h80c8.285156 0 15 6.714844 15 15s-6.714844 15-15 15zm0 0"/><path d="m155 272h-80c-8.285156 0-15-6.714844-15-15s6.714844-15 15-15h80c8.285156 0 15 6.714844 15 15s-6.714844 15-15 15zm0 0"/><path d="m155 212h-80c-8.285156 0-15-6.714844-15-15s6.714844-15 15-15h80c8.285156 0 15 6.714844 15 15s-6.714844 15-15 15zm0 0"/></g><path d="m477 391h-50c-19.300781 0-35-15.699219-35-35v-156c0-8.285156 6.714844-15 15-15h90c8.285156 0 15 6.714844 15 15v156c0 19.300781-15.699219 35-35 35zm0 0" fill="#fc0023"/><path d="m257 281c-8.269531 0-15-6.730469-15-15s6.730469-15 15-15h30c8.285156 0 15-6.714844 15-15s-6.714844-15-15-15h-15v-5c0-8.285156-6.714844-15-15-15s-15 6.714844-15 15v7.578125c-17.460938 6.195313-30 22.867187-30 42.421875 0 24.8125 20.1875 45 45 45 8.269531 0 15 6.730469 15 15s-6.730469 15-15 15h-26.84375c-8.28125 0-15 6.714844-15 15s6.71875 15 15 15h11.84375v5c0 8.285156 6.714844 15 15 15s15-6.714844 15-15v-7.578125c17.460938-6.195313 30-22.867187 30-42.421875 0-24.8125-20.1875-45-45-45zm0 0" fill="#323c3c"/><path d="m106 0c-33.085938 0-60 26.917969-60 60 0 33.085938 26.914062 60 60 60 8.285156 0 15-6.714844 15-15s-6.714844-15-15-15c-16.542969 0-30-13.457031-30-30s13.457031-30 30-30c12.277344 0 22.847656 7.417969 27.488281 18h31.304688c-5.574219-27.355469-29.816407-48-58.792969-48zm0 0" fill="#ff6379"/><path d="m256 0c-33.085938 0-60 26.917969-60 60 0 33.085938 26.914062 60 60 60 8.285156 0 15-6.714844 15-15s-6.714844-15-15-15c-16.542969 0-30-13.457031-30-30s13.457031-30 30-30c12.277344 0 22.847656 7.417969 27.488281 18h31.304688c-5.574219-27.355469-29.816407-48-58.792969-48zm0 0" fill="#ff415b"/><path d="m497 185h-45v206h25c19.300781 0 35-15.699219 35-35v-156c0-8.285156-6.714844-15-15-15zm0 0" fill="#c9001c"/><path d="m497 215h-90c-5.433594 0-10.441406-2.9375-13.09375-7.683594-2.652344-4.742187-2.527344-10.546875.316406-15.175781l36.675782-59.613281c4.375-7.109375 12.460937-11.527344 21.101562-11.527344s16.726562 4.417969 21.101562 11.527344l36.675782 59.613281c2.84375 4.628906 2.96875 10.433594.316406 15.175781-2.652344 4.746094-7.660156 7.683594-13.09375 7.683594zm0 0" fill="#ffbeaa"/><path d="m509.777344 192.140625-36.675782-59.613281c-4.375-7.109375-12.460937-11.527344-21.101562-11.527344v94h45c5.433594 0 10.441406-2.9375 13.09375-7.683594 2.652344-4.742187 2.527344-10.546875-.316406-15.175781zm0 0" fill="#faa68f"/></svg>