<?xml version="1.0" encoding="iso-8859-1"?>
<!-- Generator: Adobe Illustrator 19.0.0, SVG Export Plug-In . SVG Version: 6.00 Build 0)  -->
<svg version="1.1" id="Capa_1" xmlns="http://www.w3.org/2000/svg" xmlns:xlink="http://www.w3.org/1999/xlink" x="0px" y="0px"
	 viewBox="0 0 512 512" style="enable-background:new 0 0 512 512;" xml:space="preserve">
<path style="fill:#FFDAAA;" d="M404.44,94.59v301.688c0,21.504-17.438,38.942-38.952,38.942H146.512
	c-21.514,0-38.952-17.438-38.952-38.942V46.973c0-16.956,10.842-31.383,25.961-36.723c4.066-1.436,8.433-2.219,12.991-2.219h173.939
	c5.913,0,11.686,1.345,16.916,3.875c4.297,2.058,8.222,4.929,11.545,8.483l20.851,22.307l23.873,24.988
	c3.182,3.313,5.712,7.148,7.509,11.284C403.305,83.858,404.44,89.158,404.44,94.59z"/>
<path style="fill:#FFB655;" d="M401.149,78.972h-42.392c-11.814,0-21.393-9.577-21.393-21.393V11.901
	c4.299,2.067,8.224,4.937,11.545,8.488l20.858,22.309l23.87,24.982C396.817,71.001,399.346,74.827,401.149,78.972z"/>
<path style="fill:#FFC477;" d="M223.403,241.704c-13.678,0-24.767-11.088-24.767-24.767v-5.451
	c0-15.331-12.428-27.758-27.758-27.758h-21.79c-8.597,0-15.566-6.969-15.566-15.566V10.25
	c-15.119,5.341-25.961,19.767-25.961,36.723v136.754v45.166v167.384c0,21.504,17.438,38.942,38.952,38.942h218.975
	c21.514,0,38.952-17.438,38.952-38.942V241.704H223.403z"/>
<path style="fill:#78B9EB;" d="M460.87,319.277v134.726c0,8.152-1.938,15.862-5.371,22.679
	c-8.302,16.484-25.379,27.789-45.096,27.789H101.597c-27.869,0-50.467-22.598-50.467-50.467V238.592
	c0-15.34,12.429-27.758,27.758-27.758h91.989c15.33,0,27.758,12.419,27.758,27.758v5.451c0,13.683,11.083,24.767,24.767,24.767h187
	C438.272,268.81,460.87,291.408,460.87,319.277z"/>
<path style="fill:#96C8EF;" d="M460.87,319.277v134.726c0,8.152-1.938,15.862-5.371,22.679c-4.136,1.104-8.483,1.687-12.971,1.687
	H133.722c-27.869,0-50.467-22.598-50.467-50.467V212.49c0-0.562,0.02-1.114,0.06-1.656h87.562c15.33,0,27.758,12.419,27.758,27.758
	v5.451c0,13.683,11.083,24.767,24.767,24.767h187C438.272,268.81,460.87,291.408,460.87,319.277z"/>
<circle style="fill:#3D9AE2;" cx="249.645" cy="386.319" r="75.766"/>
<path d="M211.648,329.619c3.453-2.316,4.376-6.993,2.061-10.447s-6.992-4.375-10.447-2.061
	c-47.315,31.722-49.188,99.908-5.249,134.576c61.589,48.59,150.129-7.588,132.862-83.78c-9.977-44.012-53.173-71.965-97.213-63.332
	c-4.081,0.8-6.74,4.757-5.94,8.838c0.8,4.081,4.762,6.732,8.837,5.941c35.961-7.051,71.332,15.277,79.631,51.884
	c8.26,36.439-13.999,73.14-51.461,81.632c-36.512,8.28-73.155-14.067-81.632-51.46C176.786,373.565,188.336,345.248,211.648,329.619
	z"/>
<path d="M248.77,423.224c-15.518,0-16.378-10.361-21.344-10.361c-2.984,0-5.54,3.526-5.54,6.413c0,5.129,8.191,13.063,21.626,14.89
	v6.332c0,3.381,2.751,6.131,6.131,6.131c3.381,0,6.131-2.751,6.131-6.131v-6.454c13.767-2.246,21.626-12.019,21.626-27
	c0-35.603-41.441-23.624-41.441-44.687c0-10.484,8.867-12.686,16.305-12.686c10.896,0,14.164,4.744,17.475,4.744
	c3.604,0,5.414-4.111,5.414-6.413c0-5.848-11.102-8.67-19.379-9.277v-6.582c0-3.381-2.751-6.131-6.131-6.131
	c-3.381,0-6.131,2.751-6.131,6.131v7.359c-12.511,2.681-19.379,11.022-19.379,23.604c0,31.797,41.441,18.822,41.441,44.687
	C265.573,417.887,259.763,423.224,248.77,423.224z"/>
<path d="M348.722,114.949h-18.914c-4.156,0-7.529,3.363-7.529,7.529c0,4.156,3.373,7.529,7.529,7.529h18.914
	c4.156,0,7.529-3.373,7.529-7.529C356.252,118.312,352.878,114.949,348.722,114.949z"/>
<path d="M307.22,122.478c0-4.166-3.373-7.529-7.529-7.529H166.169c-4.156,0-7.529,3.363-7.529,7.529
	c0,4.156,3.373,7.529,7.529,7.529h133.522C303.847,130.008,307.22,126.635,307.22,122.478z"/>
<path d="M190.103,152.315h-23.933c-4.156,0-7.529,3.373-7.529,7.529c0,4.166,3.373,7.529,7.529,7.529h23.933
	c4.156,0,7.529-3.363,7.529-7.529C197.632,155.688,194.259,152.315,190.103,152.315z"/>
<path d="M348.722,152.315H220.22c-4.156,0-7.529,3.373-7.529,7.529c0,4.166,3.373,7.529,7.529,7.529h128.502
	c4.156,0,7.529-3.363,7.529-7.529C356.252,155.688,352.878,152.315,348.722,152.315z"/>
<path d="M461.232,449.656c-4.156-0.261-7.72,2.901-7.981,7.048c-1.395,22.568-20.219,40.237-42.847,40.237H101.597
	c-23.672,0-42.938-19.265-42.938-42.938v-65.827c0-4.166-3.363-7.529-7.529-7.529c-4.156,0-7.529,3.363-7.529,7.529v65.827
	C43.6,485.988,69.622,512,101.597,512h308.806c30.569,0,55.989-23.883,57.886-54.362
	C468.54,453.491,465.388,449.918,461.232,449.656z"/>
<path d="M385.43,70.718c-0.006-0.007-0.012-0.013-0.019-0.02c0.013,0.014,0.029,0.031,0.047,0.049
	C385.448,70.737,385.437,70.726,385.43,70.718z"/>
<path d="M412.471,261.321c-1.283-172.636,2.969-169.878-3.955-185.555c-5.343-12.24-12.177-15.944-32.878-38.551
	c-21.781-23.261-20.545-22.031-22.387-23.873C344.003,4.451,332.27,0,320.452,0H146.512c-25.911,0-46.984,21.072-46.984,46.973
	v156.331H78.888c-19.456,0-35.288,15.822-35.288,35.288v119.467c0,4.156,3.373,7.529,7.529,7.529c4.166,0,7.529-3.373,7.529-7.529
	V238.592c0-11.164,9.075-20.229,20.229-20.229h20.641h16.063h55.286c11.154,0,20.229,9.065,20.229,20.229v5.451
	c0,17.81,14.487,32.296,32.296,32.296c6.733,0,180.309,0,187,0c23.574,0,42.938,19.168,42.938,42.938v107.781
	c0,4.156,3.363,7.529,7.529,7.529c4.156,0,7.529-3.373,7.529-7.529V319.277C468.4,287.985,443.492,262.405,412.471,261.321z
	 M345.399,28.391c31.789,33.613,38.756,40.98,40.011,42.307c-0.009-0.01-0.016-0.017-0.022-0.024
	c0.008,0.009,0.021,0.022,0.041,0.044c0.012,0.012,0.022,0.023,0.032,0.034c-0.002-0.002-0.003-0.003-0.005-0.005
	c0.011,0.012,0.024,0.025,0.038,0.04c-0.002-0.002-0.004-0.004-0.006-0.007c0.016,0.017,0.03,0.032,0.044,0.046
	c-0.001-0.001-0.003-0.003-0.004-0.004c0.012,0.013,0.025,0.026,0.039,0.041s0.026,0.028,0.036,0.038
	c-0.004-0.004-0.008-0.009-0.012-0.013c0.015,0.016,0.028,0.03,0.045,0.047H345.4V28.391H345.399z M396.408,261.281H223.403
	c-9.507,0-17.237-7.73-17.237-17.237v-5.451c0-19.466-15.832-35.288-35.288-35.288h-55.286V46.973
	c0-17.047,13.874-30.911,30.921-30.911c23.723,0.059,44.228-0.003,61.969,0c118.797,0.019,111.77-0.083,120.855,0v62.906
	c0,4.437,3.594,8.031,8.031,8.031h58.087C397.214,93.869,396.083,87.524,396.408,261.281z"/>
<g>
</g>
<g>
</g>
<g>
</g>
<g>
</g>
<g>
</g>
<g>
</g>
<g>
</g>
<g>
</g>
<g>
</g>
<g>
</g>
<g>
</g>
<g>
</g>
<g>
</g>
<g>
</g>
<g>
</g>
</svg>
