<?xml version="1.0"?>
<svg xmlns="http://www.w3.org/2000/svg" id="Layer_1" data-name="Layer 1" viewBox="0 0 512 512" width="512" height="512"><title>Cash Payment</title><g id="_Group_" data-name=" Group "><path d="M484.53,163.55l-28.09,28.09-10.1-9.61a29.369,29.369,0,0,1,0-41.55l7.39-7.73Z" style="fill:#00efd1"/><path d="M456.44,191.64,301.83,346.25a14.344,14.344,0,0,0,.72-4.51V320.09a14.436,14.436,0,0,0-14.43-14.43h10.1a14.429,14.429,0,0,0,14.43-14.43V272.35h.04a58.91,58.91,0,1,0-30.79-17.19H175.45l172.01-172,7.85,7.85a29.381,29.381,0,0,0,41.56,0l7.17-7.17.39-.39,49.3,49.3-7.39,7.73a29.369,29.369,0,0,0,0,41.55Z" style="fill:#00acea"/><path d="M404.43,83.45l-.39.39-7.17,7.17a29.381,29.381,0,0,1-41.56,0l-7.85-7.85,28.33-28.34Z" style="fill:#00efd1"/><path d="M366.31,173.04a58.9,58.9,0,0,1-53.62,99.31h-.04v-2.76a14.429,14.429,0,0,0-14.43-14.43H281.9a58.888,58.888,0,0,1,84.41-82.12Z" style="fill:#00efd1"/><path d="M301.83,346.25a14.436,14.436,0,0,1-13.71,9.92h-6.49a14.429,14.429,0,0,1,14.43,14.43v21.65a14.436,14.436,0,0,1-14.43,14.43h-9.38a14.429,14.429,0,0,1,14.43,14.43v21.64a14.429,14.429,0,0,1-14.43,14.43H153.98a72.167,72.167,0,0,1-33.33-8.16L94.76,435.54h-.05V276.8h.05l25.89-13.48a72.167,72.167,0,0,1,33.33-8.16H298.22a14.429,14.429,0,0,1,14.43,14.43v21.64a14.429,14.429,0,0,1-14.43,14.43h-10.1a14.436,14.436,0,0,1,14.43,14.43v21.65A14.344,14.344,0,0,1,301.83,346.25Z" style="fill:#f7caa5"/><polygon points="94.71 435.54 94.71 457.18 27.47 457.18 27.47 248.67 94.71 248.67 94.71 276.8 94.71 435.54" style="fill:#00efd1"/><path d="M381.446,49.162a8,8,0,0,0-11.314,0L341.8,77.423,172.136,247H153.98a79.965,79.965,0,0,0-36.88,9.144l-14.1,7.5V248.67c0-4.419-3.872-7.67-8.29-7.67H27.47c-4.418,0-8.47,3.251-8.47,7.67V457.18c0,4.419,4.052,7.82,8.47,7.82H94.71a8.1,8.1,0,0,0,8.29-7.82V448.7l14.1,7.326A79.808,79.808,0,0,0,153.98,465H272.25c12.368,0,22.75-9.882,22.75-22.25V421.11a22.431,22.431,0,0,0-2.23-9.329A22.274,22.274,0,0,0,304,392.25V370.6a22.268,22.268,0,0,0-2.7-10.716,22.36,22.36,0,0,0,7.352-9.157L490.18,169.207a8,8,0,0,0,0-11.314Zm-5.654,16.972,17.321,17.319-1.9,1.9a21.38,21.38,0,0,1-30.246,0l-2.194-2.194ZM347.46,94.393l2.193,2.233a37.367,37.367,0,0,0,52.874.03l1.9-1.9,38.114,38.114-1.925,2.014a37.37,37.37,0,0,0,.07,52.8l.139.136,4.384,3.957L311,326.216V320.09a22.334,22.334,0,0,0-1.947-9.013A22.4,22.4,0,0,0,321,291.23v-9.783c1,.083,2.546.138,3.9.138A67.071,67.071,0,1,0,266.172,247H194.765ZM285.5,247a49.783,49.783,0,0,1-11.732-33.051,50.954,50.954,0,1,1,46.475,51.342A22.529,22.529,0,0,0,298.22,247ZM87,449H35V257H87Zm192-6.25c0,3.545-3.2,6.25-6.75,6.25H153.98a63.738,63.738,0,0,1-29.49-7.166L103,430.66V281.68l21.491-11.345A63.908,63.908,0,0,1,153.98,263H298.22a6.884,6.884,0,0,1,6.78,6.59v21.64a7.044,7.044,0,0,1-6.78,6.77H252.77a8,8,0,1,0,0,16h35.35c3.546,0,6.88,2.544,6.88,6.09v21.65a6.168,6.168,0,0,1-.546,1.93A6.623,6.623,0,0,1,288.12,348H245.55a8,8,0,1,0,0,16h36.08a6.534,6.534,0,0,1,6.37,6.6v21.65a6.668,6.668,0,0,1-6.37,6.75H238.34a8,8,0,0,0,0,16h33.91c3.545,0,6.75,2.564,6.75,6.11ZM456.3,180.465l-4.37-4.158A21.368,21.368,0,0,1,452,146.139c.043-.043.086-.087.128-.131l1.735-1.815,19.358,19.357Z" style="fill:#083863"/></g></svg>
