<svg id="Layer_3" enable-background="new 0 0 64 64" height="512" viewBox="0 0 64 64" width="512" xmlns="http://www.w3.org/2000/svg"><g><path d="m12 54v-22h-6v22" fill="#8389b2"/><path d="m53 10.4-21-8.4-21 8.4v13.6h42z" fill="#a3a7c6"/><path d="m32 2-21 8.4v10.6h33c1.105 0 2-.895 2-2v-11.4z" fill="#a9adcc"/><circle cx="32" cy="14" fill="#f6b940" r="8"/><path d="m32 6c-4.418 0-8 3.582-8 8 0 1.459.397 2.822 1.079 4h8.921c1.105 0 2-.895 2-2v-8.921c-1.178-.682-2.541-1.079-4-1.079z" fill="#fad85d"/><path d="m2 58h60v4h-60z" fill="#61668c"/><path d="m2 24h60v4h-60z" fill="#61668c"/><g><path d="m56.628 12.929-24.628-9.852-24.628 9.852-.743-1.857 25-10c.239-.095.504-.095.743 0l25 10z" fill="#61668c"/></g><path d="m4 28v4h10v-4" fill="#61668c"/><path d="m4 58v-4h10v4" fill="#61668c"/><path d="m35 11h-2v-2h-2v2h-1c-.404 0-.769.244-.924.617-.155.374-.069.804.217 1.09l2.293 2.293h-2.586v2h2v2h2v-2h1c.404 0 .769-.244.924-.617.155-.374.069-.804-.217-1.09l-2.293-2.293h2.586z" fill="#fff"/><path d="m6 32v18h2c1.105 0 2-.895 2-2v-16z" fill="#a9adcc"/><g fill="#8389b2"><path d="m2 60h45c1.105 0 2-.895 2-2h-47z"/><path d="m54 26h-52v2h54c0-1.105-.895-2-2-2z"/><path d="m26 54v-22h-6v22"/></g><path d="m18 28v4h10v-4" fill="#61668c"/><path d="m18 58v-4h10v4" fill="#61668c"/><path d="m20 32v18h2c1.105 0 2-.895 2-2v-16z" fill="#a9adcc"/><path d="m44 54v-22h-6v22" fill="#8389b2"/><path d="m36 28v4h10v-4" fill="#61668c"/><path d="m36 58v-4h10v4" fill="#61668c"/><path d="m38 32v18h2c1.105 0 2-.895 2-2v-16z" fill="#a9adcc"/><path d="m58 54v-22h-6v22" fill="#8389b2"/><path d="m50 28v4h10v-4" fill="#61668c"/><path d="m50 58v-4h10v4" fill="#61668c"/><path d="m52 32v18h2c1.105 0 2-.895 2-2v-16z" fill="#a9adcc"/><path d="m62 23h-8v-11.123l2.628 1.051.743-1.857-25-10c-.239-.095-.504-.095-.743 0l-25 10 .743 1.857 2.629-1.051v11.123h-8c-.552 0-1 .448-1 1v4c0 .552.448 1 1 1h1v3c0 .552.448 1 1 1h1v20h-1c-.552 0-1 .448-1 1v3h-1c-.552 0-1 .448-1 1v4c0 .552.448 1 1 1h60c.552 0 1-.448 1-1v-4c0-.552-.448-1-1-1h-1v-3c0-.552-.448-1-1-1h-1v-20h1c.552 0 1-.448 1-1v-3h1c.552 0 1-.448 1-1v-4c0-.552-.448-1-1-1zm-50-11.923 20-8 20 8v11.923h-20-20zm1 17.923v2h-8v-2zm37 4h1v20h-1c-.552 0-1 .448-1 1v3h-2v-3c0-.552-.448-1-1-1h-1v-20h1c.552 0 1-.448 1-1v-3h2v3c0 .552.448 1 1 1zm-7 0v20h-4v-20zm2 22v2h-8v-2zm0-24h-8v-2h8zm-9 2h1v20h-1c-.552 0-1 .448-1 1v3h-6v-3c0-.552-.448-1-1-1h-1v-20h1c.552 0 1-.448 1-1v-3h6v3c0 .552.448 1 1 1zm-11 0v20h-4v-20zm2 22v2h-8v-2zm0-24h-8v-2h8zm-9 2h1v20h-1c-.552 0-1 .448-1 1v3h-2v-3c0-.552-.448-1-1-1h-1v-20h1c.552 0 1-.448 1-1v-3h2v3c0 .552.448 1 1 1zm-11 0h4v20h-4zm-2 22h8v2h-8zm56 6h-58v-2h58zm-10-4v-2h8v2zm6-4h-4v-20h4zm2-22h-8v-2h8zm2-4h-58v-2h58z"/><path d="m33 9h-2v2h-1c-.404 0-.769.244-.924.617-.155.374-.069.804.217 1.09l2.293 2.293h-2.586v2h2v2h2v-2h1c.404 0 .769-.244.924-.617.155-.374.069-.804-.217-1.09l-2.293-2.293h2.586v-2h-2z"/><path d="m41 14c0-4.962-4.038-9-9-9s-9 4.038-9 9 4.038 9 9 9 9-4.038 9-9zm-9 7c-3.86 0-7-3.14-7-7s3.14-7 7-7 7 3.14 7 7-3.14 7-7 7z"/></g></svg>